<mxfile host="65bd71144e">
    <diagram id="Bv-CuC98KGRWgYmBJfnG" name="第 1 页">
        <mxGraphModel dx="1252" dy="719" grid="1" gridSize="10" guides="1" tooltips="1" connect="1" arrows="1" fold="1" page="1" pageScale="1" pageWidth="1654" pageHeight="2336" math="0" shadow="0">
            <root>
                <mxCell id="0"/>
                <mxCell id="1" parent="0"/>
                <mxCell id="2" value="" style="rounded=0;whiteSpace=wrap;html=1;fillColor=#EDF2F4;strokeColor=none;" parent="1" vertex="1">
                    <mxGeometry x="160" y="150" width="770" height="60" as="geometry"/>
                </mxCell>
                <mxCell id="4" value="" style="shape=singleArrow;whiteSpace=wrap;html=1;fontSize=14;strokeColor=none;fillColor=#6E96A6;arrowWidth=0.5100006103515625;arrowSize=0.4239990234375;" parent="1" vertex="1">
                    <mxGeometry x="70" y="160" width="50" height="40" as="geometry"/>
                </mxCell>
                <mxCell id="5" value="" style="shape=singleArrow;whiteSpace=wrap;html=1;fontSize=14;strokeColor=none;fillColor=#6E96A6;arrowWidth=0.5100006103515625;arrowSize=0.4239990234375;" parent="1" vertex="1">
                    <mxGeometry x="970" y="160" width="50" height="40" as="geometry"/>
                </mxCell>
                <mxCell id="13" value="Stream（&lt;i&gt;out of&amp;nbsp;order&lt;/i&gt;）" style="text;html=1;strokeColor=none;fillColor=none;align=center;verticalAlign=middle;whiteSpace=wrap;rounded=0;fontSize=14;" parent="1" vertex="1">
                    <mxGeometry x="441.25" y="100" width="207.5" height="20" as="geometry"/>
                </mxCell>
                <mxCell id="14" value="&lt;font color=&quot;#ffffff&quot;&gt;&lt;b&gt;1&lt;/b&gt;&lt;/font&gt;" style="whiteSpace=wrap;html=1;aspect=fixed;fontSize=14;strokeColor=none;fillColor=#345253;fontFamily=Tahoma;" parent="1" vertex="1">
                    <mxGeometry x="870" y="165" width="30" height="30" as="geometry"/>
                </mxCell>
                <mxCell id="15" value="&lt;font color=&quot;#ffffff&quot;&gt;&lt;b&gt;5&lt;/b&gt;&lt;/font&gt;" style="whiteSpace=wrap;html=1;aspect=fixed;fontSize=14;strokeColor=none;fillColor=#345253;fontFamily=Tahoma;" parent="1" vertex="1">
                    <mxGeometry x="810" y="165" width="30" height="30" as="geometry"/>
                </mxCell>
                <mxCell id="16" value="&lt;font color=&quot;#ffffff&quot;&gt;&lt;b&gt;3&lt;/b&gt;&lt;/font&gt;" style="whiteSpace=wrap;html=1;aspect=fixed;fontSize=14;strokeColor=none;fillColor=#345253;fontFamily=Tahoma;" parent="1" vertex="1">
                    <mxGeometry x="760" y="165" width="30" height="30" as="geometry"/>
                </mxCell>
                <mxCell id="17" value="&lt;font color=&quot;#ffffff&quot;&gt;&lt;b&gt;4&lt;/b&gt;&lt;/font&gt;" style="whiteSpace=wrap;html=1;aspect=fixed;fontSize=14;strokeColor=none;fillColor=#345253;fontFamily=Tahoma;" parent="1" vertex="1">
                    <mxGeometry x="690" y="165" width="30" height="30" as="geometry"/>
                </mxCell>
                <mxCell id="18" value="&lt;font color=&quot;#ffffff&quot;&gt;&lt;b&gt;8&lt;/b&gt;&lt;/font&gt;" style="whiteSpace=wrap;html=1;aspect=fixed;fontSize=14;strokeColor=none;fillColor=#345253;fontFamily=Tahoma;" parent="1" vertex="1">
                    <mxGeometry x="430" y="165" width="30" height="30" as="geometry"/>
                </mxCell>
                <mxCell id="19" value="&lt;font color=&quot;#ffffff&quot;&gt;&lt;b&gt;6&lt;/b&gt;&lt;/font&gt;" style="whiteSpace=wrap;html=1;aspect=fixed;fontSize=14;strokeColor=none;fillColor=#345253;fontFamily=Tahoma;" parent="1" vertex="1">
                    <mxGeometry x="580" y="165" width="30" height="30" as="geometry"/>
                </mxCell>
                <mxCell id="20" value="&lt;font color=&quot;#ffffff&quot;&gt;&lt;b&gt;7&lt;/b&gt;&lt;/font&gt;" style="whiteSpace=wrap;html=1;aspect=fixed;fontSize=14;strokeColor=none;fillColor=#345253;fontFamily=Tahoma;" parent="1" vertex="1">
                    <mxGeometry x="520" y="165" width="30" height="30" as="geometry"/>
                </mxCell>
                <mxCell id="21" value="&lt;font color=&quot;#ffffff&quot;&gt;&lt;b&gt;2&lt;/b&gt;&lt;/font&gt;" style="whiteSpace=wrap;html=1;aspect=fixed;fontSize=14;strokeColor=none;fillColor=#345253;fontFamily=Tahoma;" parent="1" vertex="1">
                    <mxGeometry x="350" y="165" width="30" height="30" as="geometry"/>
                </mxCell>
                <mxCell id="22" value="&lt;b style=&quot;font-size: 14px;&quot;&gt;-∞&lt;/b&gt;" style="ellipse;whiteSpace=wrap;html=1;aspect=fixed;fillColor=#FFD966;strokeColor=none;fontSize=14;fontFamily=Tahoma;" parent="1" vertex="1">
                    <mxGeometry x="912" y="200" width="30" height="30" as="geometry"/>
                </mxCell>
                <mxCell id="27" value="&lt;b style=&quot;font-size: 14px&quot;&gt;3&lt;/b&gt;" style="ellipse;whiteSpace=wrap;html=1;aspect=fixed;fillColor=#FFD966;strokeColor=none;fontSize=14;fontFamily=Tahoma;" parent="1" vertex="1">
                    <mxGeometry x="600" y="200" width="30" height="30" as="geometry"/>
                </mxCell>
                <mxCell id="28" value="&lt;b style=&quot;font-size: 14px&quot;&gt;3&lt;/b&gt;" style="ellipse;whiteSpace=wrap;html=1;aspect=fixed;fillColor=#FFD966;strokeColor=none;fontSize=14;fontFamily=Tahoma;" parent="1" vertex="1">
                    <mxGeometry x="755" y="200" width="30" height="30" as="geometry"/>
                </mxCell>
                <mxCell id="29" value="&lt;b style=&quot;font-size: 14px&quot;&gt;6&lt;/b&gt;" style="ellipse;whiteSpace=wrap;html=1;aspect=fixed;fillColor=#FFD966;strokeColor=none;fontSize=14;fontFamily=Tahoma;" parent="1" vertex="1">
                    <mxGeometry x="290" y="200" width="30" height="30" as="geometry"/>
                </mxCell>
                <mxCell id="30" value="&lt;b style=&quot;font-size: 14px&quot;&gt;5&lt;/b&gt;" style="ellipse;whiteSpace=wrap;html=1;aspect=fixed;fillColor=#FFD966;strokeColor=none;fontSize=14;fontFamily=Tahoma;" parent="1" vertex="1">
                    <mxGeometry x="450" y="200" width="30" height="30" as="geometry"/>
                </mxCell>
                <mxCell id="33" style="rounded=0;orthogonalLoop=1;jettySize=auto;html=1;entryX=1;entryY=1;entryDx=0;entryDy=0;exitX=0;exitY=0;exitDx=0;exitDy=0;" parent="1" source="31" target="29" edge="1">
                    <mxGeometry relative="1" as="geometry"/>
                </mxCell>
                <mxCell id="34" style="edgeStyle=none;rounded=0;orthogonalLoop=1;jettySize=auto;html=1;exitX=0.5;exitY=0;exitDx=0;exitDy=0;entryX=0.5;entryY=1;entryDx=0;entryDy=0;" parent="1" source="31" target="30" edge="1">
                    <mxGeometry relative="1" as="geometry"/>
                </mxCell>
                <mxCell id="35" style="edgeStyle=none;rounded=0;orthogonalLoop=1;jettySize=auto;html=1;exitX=0.75;exitY=0;exitDx=0;exitDy=0;entryX=0.5;entryY=1;entryDx=0;entryDy=0;" parent="1" source="31" target="27" edge="1">
                    <mxGeometry relative="1" as="geometry"/>
                </mxCell>
                <mxCell id="36" style="edgeStyle=none;rounded=0;orthogonalLoop=1;jettySize=auto;html=1;exitX=1;exitY=0.25;exitDx=0;exitDy=0;entryX=0;entryY=1;entryDx=0;entryDy=0;" parent="1" source="31" target="28" edge="1">
                    <mxGeometry relative="1" as="geometry"/>
                </mxCell>
                <mxCell id="37" style="edgeStyle=none;rounded=0;orthogonalLoop=1;jettySize=auto;html=1;exitX=1;exitY=0.5;exitDx=0;exitDy=0;entryX=0.5;entryY=1;entryDx=0;entryDy=0;" parent="1" source="31" target="22" edge="1">
                    <mxGeometry relative="1" as="geometry"/>
                </mxCell>
                <mxCell id="31" value="&amp;nbsp;Watermark&amp;nbsp;&amp;nbsp;" style="text;html=1;strokeColor=none;fillColor=none;align=center;verticalAlign=middle;whiteSpace=wrap;rounded=0;" parent="1" vertex="1">
                    <mxGeometry x="530" y="310" width="70" height="20" as="geometry"/>
                </mxCell>
                <mxCell id="39" value="Watermark generate interval" style="text;html=1;strokeColor=none;fillColor=none;align=center;verticalAlign=middle;whiteSpace=wrap;rounded=0;" parent="1" vertex="1">
                    <mxGeometry x="794" y="300" width="110" height="20" as="geometry"/>
                </mxCell>
                <mxCell id="41" value="" style="endArrow=none;dashed=1;html=1;dashPattern=1 3;strokeWidth=2;" parent="1" edge="1">
                    <mxGeometry width="50" height="50" relative="1" as="geometry">
                        <mxPoint x="769.71" y="330" as="sourcePoint"/>
                        <mxPoint x="769.71" y="230" as="targetPoint"/>
                    </mxGeometry>
                </mxCell>
                <mxCell id="42" value="" style="endArrow=none;dashed=1;html=1;dashPattern=1 3;strokeWidth=2;" parent="1" edge="1">
                    <mxGeometry width="50" height="50" relative="1" as="geometry">
                        <mxPoint x="927.0000000000002" y="330" as="sourcePoint"/>
                        <mxPoint x="927.0000000000002" y="230" as="targetPoint"/>
                    </mxGeometry>
                </mxCell>
                <mxCell id="43" value="" style="endArrow=classic;html=1;" parent="1" edge="1">
                    <mxGeometry width="50" height="50" relative="1" as="geometry">
                        <mxPoint x="900" y="310" as="sourcePoint"/>
                        <mxPoint x="927" y="309.8" as="targetPoint"/>
                    </mxGeometry>
                </mxCell>
                <mxCell id="44" value="" style="endArrow=classic;html=1;" parent="1" edge="1">
                    <mxGeometry width="50" height="50" relative="1" as="geometry">
                        <mxPoint x="797" y="309.79999999999995" as="sourcePoint"/>
                        <mxPoint x="770" y="310" as="targetPoint"/>
                    </mxGeometry>
                </mxCell>
                <mxCell id="45" value="fire window [0,5)" style="text;html=1;strokeColor=none;fillColor=none;align=center;verticalAlign=middle;whiteSpace=wrap;rounded=0;" parent="1" vertex="1">
                    <mxGeometry x="310" y="40" width="110" height="20" as="geometry"/>
                </mxCell>
                <mxCell id="50" value="&lt;font color=&quot;#ffffff&quot;&gt;&lt;b&gt;9&lt;/b&gt;&lt;/font&gt;" style="whiteSpace=wrap;html=1;aspect=fixed;fontSize=14;strokeColor=none;fillColor=#345253;fontFamily=Tahoma;" vertex="1" parent="1">
                    <mxGeometry x="260" y="165" width="30" height="30" as="geometry"/>
                </mxCell>
                <mxCell id="51" value="&lt;font color=&quot;#ffffff&quot;&gt;&lt;b&gt;10&lt;/b&gt;&lt;/font&gt;" style="whiteSpace=wrap;html=1;aspect=fixed;fontSize=14;strokeColor=none;fillColor=#345253;fontFamily=Tahoma;" vertex="1" parent="1">
                    <mxGeometry x="180" y="165" width="30" height="30" as="geometry"/>
                </mxCell>
                <mxCell id="52" value="close window [0,5)" style="text;html=1;strokeColor=none;fillColor=none;align=center;verticalAlign=middle;whiteSpace=wrap;rounded=0;" vertex="1" parent="1">
                    <mxGeometry x="140" y="310" width="110" height="20" as="geometry"/>
                </mxCell>
                <mxCell id="60" value="fire window [0,5)" style="text;html=1;strokeColor=none;fillColor=none;align=center;verticalAlign=middle;whiteSpace=wrap;rounded=0;" vertex="1" parent="1">
                    <mxGeometry x="410" y="310" width="110" height="20" as="geometry"/>
                </mxCell>
                <mxCell id="61" value="" style="endArrow=none;dashed=1;html=1;dashPattern=1 3;strokeWidth=2;fontColor=#B3B3B3;entryX=0.5;entryY=1;entryDx=0;entryDy=0;exitX=0.5;exitY=0;exitDx=0;exitDy=0;" edge="1" parent="1" source="60" target="30">
                    <mxGeometry width="50" height="50" relative="1" as="geometry">
                        <mxPoint x="430" y="300" as="sourcePoint"/>
                        <mxPoint x="480" y="250" as="targetPoint"/>
                    </mxGeometry>
                </mxCell>
                <mxCell id="62" value="trigger" style="rounded=0;whiteSpace=wrap;html=1;strokeColor=none;fontColor=#FFFFFF;fillColor=#990000;" vertex="1" parent="1">
                    <mxGeometry x="335" y="90" width="60" height="30" as="geometry"/>
                </mxCell>
                <mxCell id="65" value="" style="endArrow=none;dashed=1;html=1;dashPattern=1 3;strokeWidth=2;fontColor=#B3B3B3;entryX=0.5;entryY=1;entryDx=0;entryDy=0;exitX=0.5;exitY=0;exitDx=0;exitDy=0;" edge="1" parent="1" source="52" target="51">
                    <mxGeometry width="50" height="50" relative="1" as="geometry">
                        <mxPoint x="130" y="290" as="sourcePoint"/>
                        <mxPoint x="180" y="240" as="targetPoint"/>
                    </mxGeometry>
                </mxCell>
                <mxCell id="66" value="" style="endArrow=none;dashed=1;html=1;dashPattern=1 3;strokeWidth=2;fontColor=#B3B3B3;entryX=0.5;entryY=1;entryDx=0;entryDy=0;exitX=0.5;exitY=0;exitDx=0;exitDy=0;" edge="1" parent="1" source="21" target="62">
                    <mxGeometry width="50" height="50" relative="1" as="geometry">
                        <mxPoint x="340" y="260" as="sourcePoint"/>
                        <mxPoint x="390" y="210" as="targetPoint"/>
                    </mxGeometry>
                </mxCell>
                <mxCell id="67" value="" style="endArrow=none;dashed=1;html=1;dashPattern=1 3;strokeWidth=2;fontColor=#B3B3B3;entryX=0.5;entryY=1;entryDx=0;entryDy=0;" edge="1" parent="1" target="45">
                    <mxGeometry width="50" height="50" relative="1" as="geometry">
                        <mxPoint x="365" y="90" as="sourcePoint"/>
                        <mxPoint x="375" y="130" as="targetPoint"/>
                    </mxGeometry>
                </mxCell>
            </root>
        </mxGraphModel>
    </diagram>
</mxfile>